<svg xmlns="http://www.w3.org/2000/svg" width="192" height="192" viewBox="0 0 192 192">
  <defs>
    <linearGradient id="bg" x1="0%" y1="0%" x2="100%" y2="100%">
      <stop offset="0%" style="stop-color:#0c0a1a"/>
      <stop offset="100%" style="stop-color:#1a1530"/>
    </linearGradient>
    <linearGradient id="gold" x1="0%" y1="0%" x2="100%" y2="100%">
      <stop offset="0%" style="stop-color:#FFD700"/>
      <stop offset="100%" style="stop-color:#FFA500"/>
    </linearGradient>
    <filter id="glow">
      <feGaussianBlur stdDeviation="3" result="blur"/>
      <feMerge><feMergeNode in="blur"/><feMergeNode in="SourceGraphic"/></feMerge>
    </filter>
  </defs>
  <rect width="192" height="192" rx="32" fill="url(#bg)"/>
  <rect x="4" y="4" width="184" height="184" rx="28" fill="none" stroke="url(#gold)" stroke-width="2" opacity="0.3"/>
  <g transform="translate(96,88)" filter="url(#glow)">
    <path d="M0-48c0,0-20,8-28,20c-4,6-6,12-6,18c0,12,10,22,22,22c4,0,8-1,12-3c4,2,8,3,12,3c12,0,22-10,22-22c0-6-2-12-6-18C20-40,0-48,0-48z" fill="url(#gold)"/>
    <rect x="-4" y="-22" width="8" height="16" rx="2" fill="#0c0a1a" opacity="0.3"/>
    <rect x="-14" y="-18" width="6" height="12" rx="2" fill="#0c0a1a" opacity="0.3"/>
    <rect x="8" y="-18" width="6" height="12" rx="2" fill="#0c0a1a" opacity="0.3"/>
  </g>
  <circle cx="96" cy="156" r="4" fill="url(#gold)" opacity="0.5"/>
  <circle cx="96" cy="156" r="2" fill="url(#gold)"/>
  <text x="96" y="182" text-anchor="middle" fill="url(#gold)" font-size="10" font-family="sans-serif" font-weight="bold" opacity="0.4">QRMenu</text>
</svg>
