<svg xmlns="http://www.w3.org/2000/svg" width="512" height="512" viewBox="0 0 512 512">
  <defs>
    <linearGradient id="bg" x1="0%" y1="0%" x2="100%" y2="100%">
      <stop offset="0%" style="stop-color:#0c0a1a"/>
      <stop offset="100%" style="stop-color:#1a1530"/>
    </linearGradient>
    <linearGradient id="gold" x1="0%" y1="0%" x2="100%" y2="100%">
      <stop offset="0%" style="stop-color:#FFD700"/>
      <stop offset="100%" style="stop-color:#FFA500"/>
    </linearGradient>
    <filter id="glow">
      <feGaussianBlur stdDeviation="6" result="blur"/>
      <feMerge><feMergeNode in="blur"/><feMergeNode in="SourceGraphic"/></feMerge>
    </filter>
  </defs>
  <rect width="512" height="512" rx="80" fill="url(#bg)"/>
  <rect x="8" y="8" width="496" height="496" rx="72" fill="none" stroke="url(#gold)" stroke-width="4" opacity="0.3"/>
  <g transform="translate(256,240)" filter="url(#glow)">
    <path d="M0-120c0,0-52,20-74,50c-10,16-16,32-16,48c0,30,26,56,58,56c10,0,20-3,30-8c10,5,20,8,30,8c32,0,58-26,58-56c0-16-6-32-16-48C52-100,0-120,0-120z" fill="url(#gold)"/>
    <rect x="-10" y="-56" width="20" height="40" rx="4" fill="#0c0a1a" opacity="0.3"/>
    <rect x="-38" y="-46" width="16" height="30" rx="4" fill="#0c0a1a" opacity="0.3"/>
    <rect x="22" y="-46" width="16" height="30" rx="4" fill="#0c0a1a" opacity="0.3"/>
  </g>
  <circle cx="256" cy="418" r="10" fill="url(#gold)" opacity="0.5"/>
  <circle cx="256" cy="418" r="5" fill="url(#gold)"/>
  <text x="256" y="484" text-anchor="middle" fill="url(#gold)" font-size="24" font-family="sans-serif" font-weight="bold" opacity="0.4">QRMenu</text>
</svg>
